<svg width="245" height="136" viewBox="0 0 245 136" fill="none" xmlns="http://www.w3.org/2000/svg">
<path d="M43.7715 55.832C43.6152 55.6758 43.4785 55.5 43.3613 55.3047C43.2441 55.0703 43.1465 54.7773 43.0684 54.4258C42.5215 53.7617 42.0918 53 41.7793 52.1406C41.4668 51.2812 41.252 50.4023 41.1348 49.5039C41.0176 48.5664 40.998 47.6289 41.0762 46.6914C41.1543 45.7539 41.291 44.875 41.4863 44.0547C41.6035 43.6641 41.7012 43.2539 41.7793 42.8242C41.9746 42.082 42.1699 41.3594 42.3652 40.6562C42.5605 39.9141 42.8535 39.3086 43.2441 38.8398C43.0879 38.4102 43.1074 37.9414 43.3027 37.4336C43.498 36.9258 43.6934 36.457 43.8887 36.0273C43.9668 35.9102 44.0254 35.8125 44.0645 35.7344C44.1035 35.6172 44.1426 35.5195 44.1816 35.4414C44.6504 34.0742 45.0996 32.7656 45.5293 31.5156C45.998 30.2266 46.4473 28.9961 46.877 27.8242C47.6582 25.6758 48.4004 23.5664 49.1035 21.4961C49.8457 19.4258 50.5098 17.2188 51.0957 14.875C51.4082 14.6406 51.6816 14.4844 51.916 14.4062C51.9941 14.3672 52.0918 14.3281 52.209 14.2891C52.3262 14.25 52.4629 14.2305 52.6191 14.2305C53.4395 14.6602 54.3965 15.0703 55.4902 15.4609C56.623 15.8125 57.5801 15.9883 58.3613 15.9883L59.3574 16.8672C59.8652 17.4531 60.2949 18.0781 60.6465 18.7422C61.0371 19.3672 61.1543 20.1875 60.998 21.2031C60.7637 21.5547 60.5684 21.7695 60.4121 21.8477C60.1777 22.7461 59.9238 23.5469 59.6504 24.25C59.377 24.9141 59.1035 25.5586 58.8301 26.1836C58.5176 26.8867 58.2246 27.5898 57.9512 28.293C57.6777 28.9961 57.4434 29.8555 57.248 30.8711C57.0137 31.1445 56.8574 31.3789 56.7793 31.5742C56.7402 31.7695 56.6816 31.9648 56.6035 32.1602C56.5254 32.3945 56.4277 32.6484 56.3105 32.9219C56.1934 33.1562 56.0176 33.3711 55.7832 33.5664C55.627 34.7773 55.3926 35.7734 55.0801 36.5547C54.7676 37.2969 54.4551 38.0391 54.1426 38.7812C53.5957 40.1484 53.0879 41.5156 52.6191 42.8828C52.1504 44.2109 51.877 45.7344 51.7988 47.4531C52.2676 47.3359 52.6973 47.2773 53.0879 47.2773C53.5957 47.2773 54.084 47.3555 54.5527 47.5117C55.959 46.8086 57.4824 46.3789 59.123 46.2227C60.8027 46.0664 62.4629 45.9688 64.1035 45.9297C65.4707 45.9297 66.7402 45.8711 67.9121 45.7539C68.3027 46.0273 68.5566 46.1836 68.6738 46.2227C68.791 46.2227 68.9863 46.2227 69.2598 46.2227C69.377 46.2227 69.4941 46.2227 69.6113 46.2227C69.7285 46.2227 69.8848 46.2422 70.0801 46.2812C70.627 46.8281 71.1543 47.2188 71.6621 47.4531C72.1699 47.6484 72.7168 47.8438 73.3027 48.0391C73.8105 48.2344 74.2988 48.4492 74.7676 48.6836C75.2754 48.8789 75.7637 49.1523 76.2324 49.5039L76.7598 52.4922C77.0723 52.9219 77.209 53.2148 77.1699 53.3711C77.1699 53.6836 77.0918 53.957 76.9355 54.1914L77.0527 54.9531C76.3105 55.1094 75.8223 55.2852 75.5879 55.4805C75.3535 55.6367 75.0996 55.8516 74.8262 56.125C74.3965 56.1641 73.9863 56.1836 73.5957 56.1836C72.8145 56.1836 72.0137 56.3008 71.1934 56.5352C70.0215 56.1055 68.7324 55.8906 67.3262 55.8906C66.7793 55.8906 66.2129 55.9102 65.627 55.9492C65.0801 55.9883 64.5332 56.0469 63.9863 56.125C63.4004 56.2031 62.8145 56.2812 62.2285 56.3594C61.6426 56.3984 61.0566 56.418 60.4707 56.418C60.002 56.4961 59.6699 56.5547 59.4746 56.5938C59.2793 56.6328 59.084 56.6914 58.8887 56.7695C57.5605 57.1992 56.1152 57.6289 54.5527 58.0586C53.0293 58.4883 51.4863 58.7031 49.9238 58.7031C47.6191 58.7031 45.7637 58.1172 44.3574 56.9453C44.2012 56.5938 44.084 56.3594 44.0059 56.2422C43.9277 56.125 43.8496 55.9883 43.7715 55.832ZM112.561 40.4219C112.521 40.8906 112.561 41.3398 112.678 41.7695C112.795 42.1992 112.932 42.6289 113.088 43.0586C113.283 43.4492 113.459 43.8594 113.615 44.2891C113.771 44.7188 113.889 45.1484 113.967 45.5781C114.045 46.125 114.045 46.7305 113.967 47.3945C113.889 48.0195 113.752 48.6445 113.557 49.2695C113.361 49.8555 113.107 50.4023 112.795 50.9102C112.482 51.3789 112.111 51.7305 111.682 51.9648C111.135 52.668 110.471 53.2148 109.689 53.6055C108.908 53.9961 108.186 54.4648 107.521 55.0117C107.092 55.2852 106.604 55.4805 106.057 55.5977C105.549 55.7148 105.021 55.832 104.475 55.9492C104.045 56.1836 103.537 56.4375 102.951 56.7109C102.365 56.9453 101.76 57.1797 101.135 57.4141C100.51 57.6094 99.8848 57.7656 99.2598 57.8828C98.6348 57.9609 98.0879 57.9805 97.6191 57.9414C96.4473 58.3711 95.2949 58.6445 94.1621 58.7617C93.0684 58.918 91.7793 58.8398 90.2949 58.5273C88.8887 58.7227 87.5801 58.6641 86.3691 58.3516C85.1973 58.0391 84.1426 57.5508 83.2051 56.8867C82.3066 56.1836 81.5059 55.3633 80.8027 54.4258C80.1387 53.4492 79.5918 52.4336 79.1621 51.3789C78.8496 49.1523 78.9277 47.1406 79.3965 45.3438C79.8652 43.5078 80.5293 41.8281 81.3887 40.3047C82.2871 38.7422 83.3027 37.3164 84.4355 36.0273C85.5684 34.6992 86.6621 33.4102 87.7168 32.1602C87.9512 32.2383 88.127 32.2383 88.2441 32.1602C88.4004 32.043 88.5371 31.9062 88.6543 31.75C88.7715 31.5547 88.8887 31.3789 89.0059 31.2227C89.1621 31.0664 89.3379 30.9688 89.5332 30.9297C89.8066 30.3438 90.1973 29.9141 90.7051 29.6406C91.252 29.3281 91.6816 28.8984 91.9941 28.3516C92.3457 28.2734 92.6387 28.1562 92.873 28C93.1074 27.8438 93.3223 27.668 93.5176 27.4727C93.752 27.2773 93.9863 27.1016 94.2207 26.9453C94.4551 26.75 94.7285 26.6133 95.041 26.5352V25.8906C95.7441 25.5781 96.252 25.2266 96.5645 24.8359C96.916 24.4062 97.3262 23.8984 97.7949 23.3125C98.1465 23.2734 98.4199 23.2539 98.6152 23.2539C98.8496 23.2539 99.1816 23.2148 99.6113 23.1367C99.9238 22.5898 100.197 22.1797 100.432 21.9062C100.705 21.6328 101.096 21.3398 101.604 21.0273C102.072 21.2617 102.58 21.418 103.127 21.4961C103.713 21.5742 104.221 21.8281 104.65 22.2578C104.689 22.6484 104.807 22.9609 105.002 23.1953C105.197 23.3906 105.412 23.5859 105.646 23.7812C105.881 23.9375 106.096 24.1133 106.291 24.3086C106.525 24.5039 106.682 24.7773 106.76 25.1289C106.916 25.168 107.014 25.1484 107.053 25.0703C107.131 24.9922 107.248 24.9727 107.404 25.0117C107.521 25.5586 107.658 25.9297 107.814 26.125C107.971 26.2812 108.127 26.6133 108.283 27.1211C108.088 27.5117 107.932 27.9219 107.814 28.3516C107.736 28.7422 107.502 29.0352 107.111 29.2305C107.072 29.5039 107.15 29.6602 107.346 29.6992C107.541 29.6992 107.658 29.7969 107.697 29.9922C107.736 30.3438 107.678 30.5977 107.521 30.7539C108.459 32.2773 109.299 33.8984 110.041 35.6172C110.783 37.2969 111.623 38.8984 112.561 40.4219ZM105.236 45.9883C105.393 45.5586 105.588 45.207 105.822 44.9336C106.096 44.6602 106.252 44.25 106.291 43.7031C106.096 43.3906 105.979 43.1562 105.939 43C105.9 42.8047 105.881 42.5117 105.881 42.1211C105.021 40.9102 104.279 39.6211 103.654 38.2539C103.029 36.8477 102.326 35.5391 101.545 34.3281C101.467 34.4844 101.33 34.6406 101.135 34.7969C100.939 34.9531 100.725 34.9141 100.49 34.6797C100.412 34.9922 100.275 35.2266 100.08 35.3828C99.8848 35.5 99.6699 35.5586 99.4355 35.5586C99.2012 35.5195 98.9473 35.4609 98.6738 35.3828C98.4395 35.2656 98.2246 35.1289 98.0293 34.9727C96.8965 35.8711 95.7637 36.75 94.6309 37.6094C93.498 38.4688 92.4824 39.4648 91.584 40.5977C91.4277 40.6758 91.3301 40.7148 91.291 40.7148C91.252 40.6758 91.1348 40.6953 90.9395 40.7734C90.627 41.5156 90.2363 42.1992 89.7676 42.8242C89.3379 43.4102 88.9082 44.0156 88.4785 44.6406C88.0488 45.2656 87.6777 45.9297 87.3652 46.6328C87.0527 47.3359 86.877 48.1562 86.8379 49.0938C87.502 49.6406 88.2832 49.9727 89.1816 50.0898C90.0801 50.207 90.998 50.2266 91.9355 50.1484C92.9121 50.0703 93.8496 49.9531 94.748 49.7969C95.6855 49.6016 96.5449 49.5039 97.3262 49.5039C98.9668 49.1133 100.373 48.6055 101.545 47.9805C102.717 47.3164 103.947 46.6523 105.236 45.9883ZM149.533 24.6602C149.611 25.5195 149.748 26.2617 149.943 26.8867C150.139 27.5117 150.354 28.1172 150.588 28.7031C150.783 29.25 150.959 29.7969 151.115 30.3438C151.311 30.8516 151.447 31.4766 151.525 32.2188C151.213 33.2344 150.979 34.1719 150.822 35.0312C150.705 35.8906 150.568 36.7891 150.412 37.7266C149.787 39.0938 149.182 40.3047 148.596 41.3594C148.01 42.4141 147.541 43.332 147.189 44.1133C146.994 44.3086 146.818 44.543 146.662 44.8164C146.545 45.0508 146.408 45.3047 146.252 45.5781C146.174 45.6953 146.076 45.8711 145.959 46.1055C145.842 46.3398 145.744 46.4961 145.666 46.5742L144.494 46.1641L144.26 47.6289L143.439 47.8633L142.854 48.5664C142.111 49.8555 141.33 50.9492 140.51 51.8477C139.689 52.707 138.752 53.4883 137.697 54.1914C136.682 54.8555 135.51 55.4805 134.182 56.0664C132.893 56.6523 131.428 57.2969 129.787 58C129.123 57.9219 128.537 57.8828 128.029 57.8828C127.561 57.8438 127.111 57.8047 126.682 57.7656C125.939 57.7656 125.021 57.707 123.928 57.5898C123.811 57.2773 123.635 57.0625 123.4 56.9453C123.166 56.8281 122.951 56.7695 122.756 56.7695C122.092 56.457 121.584 56.0078 121.232 55.4219C120.92 54.7969 120.607 54.1328 120.295 53.4297C120.1 53 119.904 52.6094 119.709 52.2578C119.514 51.8672 119.299 51.4766 119.064 51.0859L120.061 50.793L118.771 49.3867C118.693 49.2695 118.596 49.1719 118.479 49.0938C118.361 48.9766 118.264 48.8594 118.186 48.7422L118.127 47.8047C118.01 45.1094 117.951 42.6484 117.951 40.4219C117.99 38.1562 118.303 36.1445 118.889 34.3867V33.7422C119.006 32.8828 119.123 32.1797 119.24 31.6328C119.357 31.0469 119.455 30.5 119.533 29.9922C119.65 29.1328 119.826 28.332 120.061 27.5898C120.607 27.4727 121.018 27.2578 121.291 26.9453C121.564 26.5938 121.799 26.2812 121.994 26.0078C122.541 25.9688 122.912 26.0469 123.107 26.2422C123.303 26.4375 123.498 26.75 123.693 27.1797C123.889 27.5312 124.123 27.9219 124.396 28.3516C124.709 28.7812 125.158 29.1133 125.744 29.3477C125.822 29.6602 125.92 29.9922 126.037 30.3438C126.193 30.6562 126.35 31.0078 126.506 31.3984C126.818 32.0625 127.092 32.7656 127.326 33.5078C127.6 34.2109 127.756 34.8945 127.795 35.5586C127.404 36.3008 127.092 37.1602 126.857 38.1367C126.662 39.1133 126.525 40.1094 126.447 41.125C126.408 42.1016 126.428 43.0586 126.506 43.9961C126.623 44.8945 126.799 45.6562 127.033 46.2812L127.385 47.043L128.381 46.9258C129.553 46.6133 130.607 46.2812 131.545 45.9297C132.521 45.5391 133.42 45.0898 134.24 44.582C135.061 44.0742 135.842 43.4883 136.584 42.8242C137.326 42.1211 138.107 41.3203 138.928 40.4219C139.748 39.5234 140.451 38.5078 141.037 37.375C141.662 36.2031 142.17 34.9922 142.561 33.7422C142.99 32.4922 143.303 31.2617 143.498 30.0508C143.732 28.8008 143.889 27.6289 143.967 26.5352C144.631 26.3008 144.963 25.832 144.963 25.1289L144.846 24.4844C144.689 24.25 144.689 23.9766 144.846 23.6641C145.08 22.9219 145.627 22.3555 146.486 21.9648C147.111 22.3555 147.658 22.7852 148.127 23.2539C148.635 23.7227 149.104 24.1914 149.533 24.6602ZM162.482 53.8984C162.678 55.0703 162.6 55.9883 162.248 56.6523C161.936 57.3164 161.467 57.8047 160.842 58.1172C160.256 58.4688 159.572 58.6641 158.791 58.7031C158.01 58.7422 157.268 58.7031 156.564 58.5859C156.174 58.0391 155.822 57.3555 155.51 56.5352C155.197 55.7148 154.904 54.875 154.631 54.0156C154.357 53.1172 154.104 52.2383 153.869 51.3789C153.674 50.5195 153.498 49.7578 153.342 49.0938C153.537 48.625 153.654 48.0977 153.693 47.5117C153.771 46.8867 153.811 46.2617 153.811 45.6367C153.85 45.0117 153.869 44.3867 153.869 43.7617C153.908 43.0977 153.967 42.4727 154.045 41.8867C154.318 40.2461 154.709 38.6836 155.217 37.1992C155.764 35.7148 156.193 34.1719 156.506 32.5703C156.584 32.2188 156.545 31.8867 156.389 31.5742C156.271 31.2617 156.252 30.9688 156.33 30.6953C156.369 30.5391 156.486 30.4414 156.682 30.4023C156.877 30.3242 156.994 30.1875 157.033 29.9922C157.15 29.5625 157.17 29.2109 157.092 28.9375C157.053 28.6641 157.131 28.332 157.326 27.9414C157.521 27.6289 157.756 27.1797 158.029 26.5938C158.342 25.9688 158.459 25.3242 158.381 24.6602C158.732 24.4258 159.064 24.1523 159.377 23.8398C159.689 23.5273 160.002 23.2539 160.314 23.0195C160.666 22.7461 161.037 22.5117 161.428 22.3164C161.857 22.1211 162.365 22.0234 162.951 22.0234C163.264 22.4141 163.459 22.8438 163.537 23.3125C163.654 23.7812 163.752 24.25 163.83 24.7188C163.947 25.1875 164.104 25.6367 164.299 26.0664C164.494 26.457 164.826 26.7695 165.295 27.0039C165.295 27.3164 165.295 27.707 165.295 28.1758C165.295 28.6445 165.314 29.1133 165.354 29.582C165.393 30.0117 165.471 30.4219 165.588 30.8125C165.744 31.1641 165.979 31.3984 166.291 31.5156C165.588 33.3906 164.924 35.2461 164.299 37.082C163.713 38.918 163.225 40.7734 162.834 42.6484C162.443 44.4844 162.189 46.3398 162.072 48.2148C161.994 50.0898 162.131 51.9844 162.482 53.8984ZM201.975 25.0117C202.014 25.2852 202.014 25.5 201.975 25.6562C201.975 25.7734 201.955 25.8906 201.916 26.0078C201.916 26.125 201.916 26.2617 201.916 26.418C201.916 26.5352 201.955 26.7305 202.033 27.0039C201.213 28.332 200.256 29.25 199.162 29.7578C198.107 30.2266 196.955 30.5781 195.705 30.8125C194.455 31.0078 193.166 31.2227 191.838 31.457C190.549 31.6914 189.26 32.1992 187.971 32.9805C187.463 32.7852 186.994 32.7852 186.564 32.9805C186.174 33.1758 185.588 33.2344 184.807 33.1562C184.572 33.3906 184.279 33.5664 183.928 33.6836C183.576 33.7617 183.225 33.8594 182.873 33.9766C183.029 34.3281 183.088 34.6992 183.049 35.0898C183.049 35.4414 183.107 35.7344 183.225 35.9688C184.592 36.0859 186.096 36.0664 187.736 35.9102C189.416 35.7539 191.057 35.6562 192.658 35.6172C192.697 35.8125 192.678 35.9492 192.6 36.0273C192.521 36.0664 192.502 36.1641 192.541 36.3203C192.814 36.5156 193.088 36.7695 193.361 37.082C193.635 37.3555 193.908 37.6289 194.182 37.9023C194.455 38.1758 194.729 38.4102 195.002 38.6055C195.314 38.7617 195.666 38.8203 196.057 38.7812C196.213 39.0938 196.311 39.4453 196.35 39.8359C196.428 40.1875 196.389 40.5586 196.232 40.9492C195.607 41.3789 194.982 41.8281 194.357 42.2969C193.732 42.7266 193.068 43.1172 192.365 43.4688C191.701 43.8203 190.979 44.1133 190.197 44.3477C189.455 44.543 188.615 44.6211 187.678 44.582C187.482 44.582 187.326 44.582 187.209 44.582C187.131 44.582 187.014 44.5234 186.857 44.4062C186.545 44.6016 186.096 44.6602 185.51 44.582C184.963 44.5039 184.533 44.5625 184.221 44.7578C183.791 44.5625 183.264 44.4844 182.639 44.5234C182.053 44.5234 181.525 44.4453 181.057 44.2891C180.432 45.1094 179.865 45.9883 179.357 46.9258C178.85 47.8633 178.4 48.8594 178.01 49.9141C179.338 50.1094 180.432 50.1875 181.291 50.1484C182.189 50.1094 183.029 50.0508 183.811 49.9727C184.592 49.8555 185.393 49.7578 186.213 49.6797C187.033 49.5625 188.068 49.5234 189.318 49.5625C190.1 49.1328 191.018 48.8594 192.072 48.7422C193.166 48.5859 194.162 48.3516 195.061 48.0391C195.373 48.1562 195.646 48.3711 195.881 48.6836C196.115 48.957 196.33 49.2305 196.525 49.5039C196.76 49.7383 196.994 49.9531 197.229 50.1484C197.463 50.3438 197.756 50.4219 198.107 50.3828C198.264 50.5391 198.361 50.7344 198.4 50.9688C198.479 51.1641 198.537 51.3594 198.576 51.5547C198.615 51.75 198.674 51.9258 198.752 52.082C198.869 52.1992 199.045 52.2383 199.279 52.1992C198.693 53.4883 198.01 54.4844 197.229 55.1875C196.486 55.8516 195.627 56.3594 194.65 56.7109C193.674 57.0625 192.58 57.3359 191.369 57.5312C190.197 57.7266 188.889 57.9609 187.443 58.2344C187.092 58.3125 186.799 58.293 186.564 58.1758C186.33 58.0977 186.057 58.0586 185.744 58.0586C184.846 58.2539 183.771 58.4297 182.521 58.5859C181.271 58.7422 180.002 58.8008 178.713 58.7617C177.424 58.7227 176.193 58.5469 175.021 58.2344C173.85 57.9609 172.893 57.4531 172.15 56.7109C171.838 56.4375 171.623 56.125 171.506 55.7734C171.428 55.3828 171.174 55.0898 170.744 54.8945C170.705 54.3867 170.627 53.8203 170.51 53.1953C170.393 52.5703 170.275 51.9258 170.158 51.2617C170.041 50.5586 169.943 49.875 169.865 49.2109C169.826 48.5469 169.865 47.9414 169.982 47.3945C170.1 46.8086 170.334 46.2812 170.686 45.8125C171.076 45.3438 171.213 44.8359 171.096 44.2891C171.291 44.25 171.408 44.1523 171.447 43.9961C171.486 43.8008 171.643 43.7227 171.916 43.7617C172.15 43.0586 172.404 42.3945 172.678 41.7695C172.951 41.1445 173.225 40.5391 173.498 39.9531C173.811 39.3672 174.104 38.7812 174.377 38.1953C174.689 37.5703 174.982 36.8867 175.256 36.1445C174.709 35.6367 174.299 35.0898 174.025 34.5039C173.791 33.8789 173.615 33.2734 173.498 32.6875C173.381 32.0625 173.283 31.4375 173.205 30.8125C173.127 30.1484 172.99 29.4844 172.795 28.8203C173.186 28.2344 173.654 27.7656 174.201 27.4141C174.787 27.0234 175.412 26.7109 176.076 26.4766C176.74 26.2422 177.463 26.0469 178.244 25.8906C179.025 25.7344 179.846 25.5586 180.705 25.3633C182.268 24.8555 183.654 24.4648 184.865 24.1914C186.115 23.918 187.326 23.7031 188.498 23.5469C189.709 23.3516 190.959 23.1758 192.248 23.0195C193.537 22.8633 195.002 22.6289 196.643 22.3164C196.994 22.668 197.326 22.8438 197.639 22.8438C197.795 22.4922 197.971 22.3945 198.166 22.5508C198.4 22.668 198.498 22.5508 198.459 22.1992C198.85 22.8633 199.338 23.4297 199.924 23.8984C200.549 24.3281 201.232 24.6992 201.975 25.0117ZM27.3652 118.234C25.6465 118.469 24.084 118.391 22.6777 118C21.2715 117.609 20.002 117.004 18.8691 116.184C17.7754 115.363 16.8184 114.387 15.998 113.254C15.2168 112.121 14.5723 110.91 14.0645 109.621C13.7129 106.965 13.8105 104.562 14.3574 102.414C14.9043 100.227 15.7051 98.2148 16.7598 96.3789C17.8145 94.543 19.0059 92.8242 20.334 91.2227C21.7012 89.6211 23.0098 88.0781 24.2598 86.5938C24.5332 86.7109 24.748 86.7109 24.9043 86.5938C25.0996 86.4766 25.2559 86.3203 25.373 86.125C25.5293 85.9297 25.6855 85.7344 25.8418 85.5391C26.0371 85.3438 26.252 85.207 26.4863 85.1289C26.6426 84.7773 26.8379 84.4844 27.0723 84.25C27.3457 84.0156 27.6191 83.8008 27.8926 83.6055C28.2051 83.3711 28.4785 83.1367 28.7129 82.9023C28.9863 82.668 29.2207 82.375 29.416 82.0234C29.8066 81.9453 30.1387 81.8086 30.4121 81.6133C30.7246 81.418 30.998 81.2031 31.2324 80.9688C31.5059 80.7344 31.7793 80.5195 32.0527 80.3242C32.3262 80.1289 32.6582 79.9727 33.0488 79.8555V79.0938C33.9082 78.7031 34.5332 78.2734 34.9238 77.8047C35.3145 77.3359 35.7832 76.7305 36.3301 75.9883C36.7598 75.9492 37.0918 75.9297 37.3262 75.9297C37.5996 75.9297 38.0098 75.8906 38.5566 75.8125C38.9082 75.1484 39.2402 74.6602 39.5527 74.3477C39.8652 74.0352 40.3145 73.6836 40.9004 73.293C41.4863 73.6055 42.1113 73.8008 42.7754 73.8789C43.4395 73.918 44.0449 74.2109 44.5918 74.7578C44.6309 75.2266 44.7676 75.5977 45.002 75.8711C45.2363 76.1055 45.4902 76.3398 45.7637 76.5742C46.0371 76.7695 46.3105 76.9844 46.584 77.2188C46.8574 77.4531 47.0332 77.7852 47.1113 78.2148C47.3066 78.2148 47.4238 78.1758 47.4629 78.0977C47.541 78.0195 47.6777 78 47.873 78.0391C47.9512 78.3516 48.0293 78.6055 48.1074 78.8008C48.1855 78.9961 48.2637 79.1719 48.3418 79.3281C48.459 79.4844 48.5566 79.6602 48.6348 79.8555C48.752 80.0508 48.8496 80.2852 48.9277 80.5586C48.7324 81.0273 48.5566 81.5352 48.4004 82.082C48.2441 82.5898 47.9316 82.9414 47.4629 83.1367C47.4629 83.4492 47.5801 83.625 47.8145 83.6641C48.0488 83.6641 48.1855 83.8008 48.2246 84.0742C48.2637 84.4258 48.2051 84.7188 48.0488 84.9531C49.1426 86.7891 50.1387 88.7227 51.0371 90.7539C51.9355 92.7461 52.9512 94.6602 54.084 96.4961C54.0059 97.043 54.0254 97.5898 54.1426 98.1367C54.2988 98.6445 54.4746 99.1523 54.6699 99.6602C54.9043 100.168 55.1191 100.676 55.3145 101.184C55.5098 101.691 55.6465 102.199 55.7246 102.707C55.8027 103.371 55.8027 104.094 55.7246 104.875C55.6465 105.617 55.4902 106.34 55.2559 107.043C55.0215 107.746 54.709 108.41 54.3184 109.035C53.9277 109.621 53.4785 110.07 52.9707 110.383C52.3457 111.164 51.5645 111.809 50.627 112.316C49.6895 112.785 48.8301 113.352 48.0488 114.016C47.502 114.328 46.916 114.562 46.291 114.719C45.666 114.836 45.0215 114.973 44.3574 115.129C43.8496 115.441 43.2441 115.754 42.541 116.066C41.8379 116.34 41.1152 116.594 40.373 116.828C39.6309 117.062 38.8887 117.258 38.1465 117.414C37.4043 117.531 36.7402 117.551 36.1543 117.473C34.748 117.98 33.3809 118.332 32.0527 118.527C30.7246 118.723 29.1621 118.625 27.3652 118.234ZM28.127 96.9062C27.7363 97.8047 27.2676 98.625 26.7207 99.3672C26.2129 100.07 25.7051 100.793 25.1973 101.535C24.6895 102.277 24.2402 103.078 23.8496 103.938C23.498 104.758 23.3027 105.734 23.2637 106.867C24.0449 107.531 24.9629 107.941 26.0176 108.098C27.1113 108.215 28.2246 108.234 29.3574 108.156C30.4902 108.039 31.623 107.883 32.7559 107.688C33.8887 107.492 34.9043 107.395 35.8027 107.395C35.8027 107.043 35.959 106.867 36.2715 106.867C37.9121 106.711 39.4355 106.262 40.8418 105.52C42.248 104.738 43.7129 103.957 45.2363 103.176C45.4316 102.707 45.6855 102.297 45.998 101.945C46.3105 101.594 46.4863 101.086 46.5254 100.422C46.3301 100.07 46.1934 99.7773 46.1152 99.543C46.0762 99.3086 46.0566 98.957 46.0566 98.4883C45.041 97.082 44.1621 95.5586 43.4199 93.918C42.6777 92.2383 41.8184 90.6562 40.8418 89.1719C40.7637 89.3672 40.6074 89.5625 40.373 89.7578C40.1387 89.9531 39.8848 89.9141 39.6113 89.6406C39.4941 90.0312 39.3184 90.3047 39.084 90.4609C38.8496 90.5781 38.5762 90.6367 38.2637 90.6367C37.9902 90.6367 37.6973 90.5781 37.3848 90.4609C37.1113 90.3438 36.8574 90.1875 36.623 89.9922C35.2559 91.0859 33.8887 92.1406 32.5215 93.1562C31.1934 94.1719 29.9824 95.3633 28.8887 96.7305C28.6934 96.8477 28.5762 96.8867 28.5371 96.8477C28.498 96.8086 28.3613 96.8281 28.127 96.9062ZM75.2363 82.4336C75.1973 82.6289 75.0996 82.7461 74.9434 82.7852C74.8262 82.7852 74.7285 82.8828 74.6504 83.0781C74.4941 83.5078 74.3965 83.7812 74.3574 83.8984C74.3184 83.9766 74.2793 84.0352 74.2402 84.0742C74.2012 84.0742 74.1426 84.1133 74.0645 84.1914C74.0254 84.2695 73.9277 84.5039 73.7715 84.8945C73.498 85.4414 73.1465 86.0078 72.7168 86.5938C72.3262 87.1406 72.0723 87.6875 71.9551 88.2344C71.4082 88.7031 70.7246 89.3086 69.9043 90.0508C69.123 90.7539 68.3809 91.2422 67.6777 91.5156C67.3262 91.3594 66.7598 91.125 65.9785 90.8125C65.2363 90.4609 64.5137 90.0703 63.8105 89.6406C63.1465 89.1719 62.6387 88.7031 62.2871 88.2344C61.9355 87.7266 61.9746 87.2383 62.4043 86.7695C63.1074 86.0273 63.7129 85.1484 64.2207 84.1328C64.7676 83.0781 65.2363 81.9648 65.627 80.793C66.0566 79.582 66.4082 78.3516 66.6816 77.1016C66.9941 75.8125 67.2676 74.582 67.502 73.4102C67.6582 73.5664 67.8145 73.625 67.9707 73.5859C68.166 73.5078 68.3223 73.4102 68.4395 73.293C68.5957 73.1367 68.7324 72.9609 68.8496 72.7656C69.0059 72.5703 69.123 72.4141 69.2012 72.2969C69.4355 72.4922 69.8262 72.7266 70.373 73C70.959 73.2734 71.5645 73.5469 72.1895 73.8203C72.8145 74.0547 73.4004 74.2695 73.9473 74.4648C74.4941 74.6602 74.8848 74.7773 75.1191 74.8164C75.5879 75.5586 75.8418 76.2422 75.8809 76.8672C75.9199 77.4531 76.0176 78.0781 76.1738 78.7422C75.9395 78.9375 75.8027 79.2695 75.7637 79.7383C75.7246 80.168 75.6855 80.4805 75.6465 80.6758C75.6074 80.9883 75.5293 81.1836 75.4121 81.2617C75.334 81.3008 75.2559 81.457 75.1777 81.7305C75.1387 81.8086 75.1387 81.9258 75.1777 82.082C75.2559 82.2383 75.2754 82.3555 75.2363 82.4336ZM111.389 107.453C110.451 109.133 109.221 110.441 107.697 111.379C106.174 112.277 104.494 113.039 102.658 113.664C100.822 114.25 98.8887 114.777 96.8574 115.246C94.8652 115.715 92.9316 116.32 91.0566 117.062C90.5098 117.062 90.0215 117.082 89.5918 117.121C89.2012 117.16 88.8105 117.219 88.4199 117.297C88.0684 117.336 87.7168 117.395 87.3652 117.473C87.0137 117.512 86.623 117.551 86.1934 117.59C86.0371 117.551 85.9395 117.59 85.9004 117.707C85.8613 117.785 85.8027 117.863 85.7246 117.941C85.0605 118.059 84.4551 118.117 83.9082 118.117C83.4004 118.117 82.9707 118.117 82.6191 118.117C82.1504 118.117 81.6621 118.176 81.1543 118.293C80.6855 118.449 80.2559 118.508 79.8652 118.469C76.9355 118.312 74.6309 117.277 72.9512 115.363C71.3105 113.41 70.3926 110.715 70.1973 107.277C70.2363 107.082 70.1973 106.965 70.0801 106.926C70.002 106.887 69.9238 106.828 69.8457 106.75C69.8457 106.359 69.8848 106.027 69.9629 105.754C70.0801 105.48 70.0996 105.129 70.0215 104.699C71.0371 102.551 72.1895 100.559 73.4785 98.7227C74.7676 96.8477 76.3105 95.207 78.1074 93.8008C78.3809 93.5664 78.6152 93.332 78.8105 93.0977C79.0059 92.8633 79.1816 92.6289 79.3379 92.3945C79.5332 92.1602 79.748 91.9648 79.9824 91.8086C80.2168 91.6133 80.5098 91.4766 80.8613 91.3984C81.6816 90.4609 82.6582 89.6016 83.791 88.8203C84.9238 88.0391 86.1152 87.2969 87.3652 86.5938C88.6152 85.8516 89.8457 85.1289 91.0566 84.4258C92.3066 83.6836 93.4395 82.8633 94.4551 81.9648C94.8848 82.1602 95.1973 82.2188 95.3926 82.1406C95.5879 82.0625 95.8027 82.0625 96.0371 82.1406C96.3105 82.7266 96.6816 83.1367 97.1504 83.3711C97.6582 83.6055 98.1465 83.8594 98.6152 84.1328C99.123 84.3672 99.5918 84.6602 100.021 85.0117C100.451 85.3633 100.783 85.832 101.018 86.418C100.783 86.418 100.666 86.5156 100.666 86.7109C100.705 86.8672 100.764 87.043 100.842 87.2383C100.92 87.3945 100.939 87.5703 100.9 87.7656C100.9 87.9219 100.764 88 100.49 88C100.529 88.1953 100.646 88.3125 100.842 88.3516C101.076 88.3516 101.193 88.4492 101.193 88.6445C101.193 88.8398 101.135 88.9961 101.018 89.1133C100.939 89.2305 100.939 89.4258 101.018 89.6992C100.236 90.207 99.3574 90.6953 98.3809 91.1641C97.4434 91.6328 96.4473 92.1406 95.3926 92.6875C94.377 93.1953 93.3027 93.7617 92.1699 94.3867C91.0762 94.9727 90.002 95.6562 88.9473 96.4375C87.8926 97.2188 86.8184 98.0977 85.7246 99.0742C84.6309 100.012 83.5762 101.008 82.5605 102.062C81.5449 103.117 80.5879 104.211 79.6895 105.344C78.791 106.438 78.0293 107.531 77.4043 108.625C77.4824 108.82 77.5605 108.977 77.6387 109.094C77.7559 109.172 77.8535 109.309 77.9316 109.504C79.1816 109.582 80.334 109.582 81.3887 109.504C82.4824 109.387 83.5762 109.445 84.6699 109.68C84.7871 109.602 84.8652 109.484 84.9043 109.328C84.9434 109.172 85.041 109.055 85.1973 108.977C87.4238 108.742 89.4941 108.391 91.4082 107.922C93.3223 107.414 95.2754 106.887 97.2676 106.34C96.9551 106.223 96.6621 106.125 96.3887 106.047C96.1543 105.93 95.9199 105.832 95.6855 105.754C95.4902 105.559 95.4902 105.402 95.6855 105.285C95.9199 105.129 96.1152 104.973 96.2715 104.816C95.7246 104.504 95.2754 104.113 94.9238 103.645C94.6113 103.176 94.416 102.551 94.3379 101.77C94.5723 101.574 94.6895 101.34 94.6895 101.066C94.6895 100.793 94.5723 100.578 94.3379 100.422C94.1816 100.383 94.084 100.383 94.0449 100.422C94.0059 100.461 93.9668 100.52 93.9277 100.598C93.9277 100.676 93.9082 100.754 93.8691 100.832C93.8301 100.871 93.7324 100.852 93.5762 100.773C93.6152 100.422 93.6934 100.129 93.8105 99.8945C93.9668 99.6602 94.084 99.3867 94.1621 99.0742L98.2051 96.3789C98.6348 96.6914 99.1621 97.043 99.7871 97.4336C100.412 97.7852 101.057 98.1562 101.721 98.5469C102.424 98.8984 103.127 99.2695 103.83 99.6602C104.572 100.012 105.256 100.363 105.881 100.715C106.428 100.949 106.916 101.262 107.346 101.652C107.775 102.043 108.186 102.453 108.576 102.883C108.967 103.273 109.357 103.664 109.748 104.055C110.178 104.445 110.666 104.777 111.213 105.051C111.135 105.559 111.154 105.969 111.271 106.281C111.389 106.594 111.428 106.984 111.389 107.453ZM118.42 111.906C117.99 113.469 117.6 114.66 117.248 115.48C116.936 116.262 116.447 117.082 115.783 117.941C115.275 117.863 114.924 117.922 114.729 118.117C114.533 118.312 114.318 118.488 114.084 118.645C113.732 118.723 113.479 118.723 113.322 118.645C113.166 118.566 113.029 118.469 112.912 118.352C112.795 118.273 112.639 118.176 112.443 118.059C112.287 117.98 112.033 117.941 111.682 117.941C111.604 117.629 111.506 117.336 111.389 117.062C111.311 116.789 111.057 116.691 110.627 116.77C110.705 116.457 110.725 116.203 110.686 116.008C110.646 115.773 110.588 115.578 110.51 115.422C110.471 115.227 110.432 115.051 110.393 114.895C110.354 114.699 110.373 114.465 110.451 114.191C110.256 114.191 110.1 114.055 109.982 113.781C109.865 113.508 109.729 113.234 109.572 112.961C109.689 112.258 109.807 111.594 109.924 110.969C110.041 110.344 110.178 109.758 110.334 109.211C110.529 108.664 110.686 108.117 110.803 107.57C110.92 107.023 110.861 106.457 110.627 105.871C110.783 105.988 110.9 105.969 110.979 105.812C111.057 105.617 111.115 105.383 111.154 105.109C111.193 104.797 111.213 104.504 111.213 104.23C111.213 103.918 111.193 103.664 111.154 103.469C111.545 102.453 111.857 101.418 112.092 100.363C112.365 99.2695 112.6 98.1953 112.795 97.1406C113.029 96.0859 113.264 95.0508 113.498 94.0352C113.732 93.0195 114.045 92.082 114.436 91.2227C114.865 91.1445 115.334 91.2031 115.842 91.3984C116.389 91.5547 116.721 91.7695 116.838 92.043C117.854 91.2617 118.752 90.3242 119.533 89.2305C120.314 88.0977 121.115 87.0039 121.936 85.9492C122.756 84.8945 123.654 83.957 124.631 83.1367C125.646 82.3164 126.916 81.8281 128.439 81.6719C129.221 82.2578 130.08 82.8633 131.018 83.4883C131.994 84.0742 132.795 84.8555 133.42 85.832C133.732 85.9883 133.986 86.1641 134.182 86.3594C134.416 86.5156 134.689 86.6914 135.002 86.8867V87.5898C135.471 88.0195 135.842 88.5273 136.115 89.1133C136.428 89.6602 136.701 90.2656 136.936 90.9297C137.17 91.5547 137.404 92.1992 137.639 92.8633C137.873 93.4883 138.146 94.0938 138.459 94.6797C138.381 94.875 138.342 95.0508 138.342 95.207C138.342 95.3242 138.361 95.4609 138.4 95.6172C138.479 95.7734 138.537 95.9297 138.576 96.0859C138.615 96.2422 138.615 96.457 138.576 96.7305C138.459 98.4492 137.893 99.8359 136.877 100.891C135.9 101.945 134.709 102.824 133.303 103.527C131.896 104.191 130.393 104.758 128.791 105.227C127.189 105.695 125.744 106.203 124.455 106.75C124.455 106.906 124.514 106.984 124.631 106.984C124.787 106.984 124.846 107.082 124.807 107.277C125.744 107.863 126.486 108.332 127.033 108.684C127.58 109.035 128.088 109.328 128.557 109.562C129.064 109.797 129.592 110.012 130.139 110.207C130.725 110.363 131.525 110.559 132.541 110.793C133.557 111.027 134.338 111.223 134.885 111.379C135.471 111.496 135.998 111.613 136.467 111.73C136.936 111.809 137.404 111.887 137.873 111.965C138.381 112.004 139.084 112.062 139.982 112.141C140.334 112.492 140.627 112.922 140.861 113.43C141.135 113.898 141.311 114.387 141.389 114.895C141.467 115.363 141.486 115.832 141.447 116.301C141.408 116.73 141.271 117.082 141.037 117.355C141.076 117.473 141.154 117.531 141.271 117.531C141.428 117.492 141.584 117.492 141.74 117.531C141.506 117.688 141.311 117.883 141.154 118.117C140.998 118.352 140.842 118.586 140.686 118.82C140.529 119.055 140.354 119.25 140.158 119.406C139.963 119.602 139.689 119.719 139.338 119.758C138.127 120.227 136.604 120.246 134.768 119.816C132.932 119.426 130.607 118.684 127.795 117.59C126.389 117.043 125.236 116.574 124.338 116.184C123.479 115.754 122.717 115.344 122.053 114.953C121.428 114.523 120.842 114.074 120.295 113.605C119.787 113.137 119.162 112.57 118.42 111.906ZM126.799 91.8086C126.369 92.4336 125.881 93 125.334 93.5078C124.826 94.0156 124.318 94.543 123.811 95.0898C123.342 95.5977 122.912 96.1836 122.521 96.8477C122.131 97.4727 121.857 98.2148 121.701 99.0742C123.068 98.918 124.494 98.5469 125.979 97.9609C127.463 97.3359 128.869 96.75 130.197 96.2031C130.041 94.9922 129.611 94.0156 128.908 93.2734C128.244 92.5312 127.541 92.043 126.799 91.8086ZM172.443 113.078C172.209 113.742 171.857 114.426 171.389 115.129C170.959 115.793 170.432 116.398 169.807 116.945C169.221 117.453 168.557 117.883 167.814 118.234C167.072 118.586 166.291 118.781 165.471 118.82C164.963 118.703 164.611 118.566 164.416 118.41C164.26 118.293 164.084 118.176 163.889 118.059C163.771 117.98 163.654 117.922 163.537 117.883C163.459 117.805 163.381 117.746 163.303 117.707L162.6 117.414L162.834 116.652C162.912 116.34 162.893 116.105 162.775 115.949C162.658 115.754 162.424 115.5 162.072 115.188C161.955 115.07 161.838 114.953 161.721 114.836C161.604 114.719 161.506 114.602 161.428 114.484L160.432 113.371L162.014 112.961C162.99 112.688 163.635 112.336 163.947 111.906C164.299 111.477 164.436 110.754 164.357 109.738C163.576 109.582 162.912 109.562 162.365 109.68C161.857 109.797 161.33 109.934 160.783 110.09C160.08 110.285 159.357 110.461 158.615 110.617C157.912 110.734 157.131 110.793 156.271 110.793C155.959 110.793 155.666 110.793 155.393 110.793C155.119 110.754 154.826 110.715 154.514 110.676L153.928 110.559C153.85 110.129 153.771 109.895 153.693 109.855C153.615 109.777 153.537 109.699 153.459 109.621C153.264 109.426 153.049 109.172 152.814 108.859C152.619 108.508 152.58 108.078 152.697 107.57C152.502 107.219 152.385 106.867 152.346 106.516C152.111 106.984 151.936 107.473 151.818 107.98L151.584 108.566L150.998 108.684C150.92 108.723 150.861 108.82 150.822 108.977C150.783 109.094 150.764 109.191 150.764 109.27L150.471 110.266C150.393 110.344 150.314 110.422 150.236 110.5C150.158 110.539 150.08 110.598 150.002 110.676C149.924 111.027 149.826 111.379 149.709 111.73C149.592 112.082 149.475 112.414 149.357 112.727C149.162 113.234 148.986 113.742 148.83 114.25C148.713 114.719 148.674 115.188 148.713 115.656L148.479 116.301C148.283 116.535 148.068 116.73 147.834 116.887C147.6 117.004 147.365 117.121 147.131 117.238C147.053 117.316 146.936 117.395 146.779 117.473C146.662 117.512 146.564 117.551 146.486 117.59L146.311 118.234L145.607 118.352C145.178 118.43 144.865 118.488 144.67 118.527C144.514 118.566 144.318 118.586 144.084 118.586L143.498 118.527C143.068 118.176 142.736 117.902 142.502 117.707C142.268 117.473 141.994 117.258 141.682 117.062C141.33 116.594 141.135 116.242 141.096 116.008C141.057 115.773 141.018 115.559 140.979 115.363C140.9 115.129 140.861 114.934 140.861 114.777C140.822 114.621 140.764 114.504 140.686 114.426L139.924 113.723L140.568 113.195L140.627 112.199C141.408 110.207 142.229 108.293 143.088 106.457C143.986 104.621 144.904 102.746 145.842 100.832C146.154 100.207 146.447 99.582 146.721 98.957C147.033 98.332 147.346 97.707 147.658 97.082C147.619 96.9648 147.6 96.8281 147.6 96.6719C147.6 96.5156 147.639 96.3398 147.717 96.1445C148.146 95.4805 148.498 94.8945 148.771 94.3867C149.045 93.8398 149.318 93.293 149.592 92.7461C149.904 92.082 150.217 91.4375 150.529 90.8125C150.881 90.1875 151.311 89.543 151.818 88.8789L152.756 88.4688C152.873 88.4297 153.01 88.3906 153.166 88.3516C153.322 88.2734 153.498 88.2344 153.693 88.2344L154.572 88.3516C155.666 87.8438 156.623 87.1406 157.443 86.2422C158.264 85.3047 159.104 84.1914 159.963 82.9023L160.549 82.082L161.311 82.5508C161.506 82.668 161.779 82.7852 162.131 82.9023C162.482 82.9805 162.854 83.0781 163.244 83.1953C163.947 83.3516 164.611 83.5273 165.236 83.7227C165.861 83.918 166.369 84.2109 166.76 84.6016C166.994 85.2266 167.131 85.6953 167.17 86.0078C167.209 86.3203 167.268 86.6328 167.346 86.9453C167.463 87.6094 167.561 88.2734 167.639 88.9375C167.756 89.6016 167.834 90.3438 167.873 91.1641C168.068 91.8281 168.225 92.4922 168.342 93.1562C168.498 93.7812 168.635 94.4258 168.752 95.0898C168.947 96.0273 169.143 96.9453 169.338 97.8438C169.533 98.7031 169.787 99.5234 170.1 100.305C170.412 100.305 170.607 100.324 170.686 100.363C170.881 100.285 171.076 100.227 171.271 100.188C171.506 100.148 171.76 100.109 172.033 100.07L172.678 100.012L172.912 100.598C172.951 100.793 173.146 100.988 173.498 101.184C174.006 101.223 174.377 101.34 174.611 101.535C174.846 101.691 175.061 101.867 175.256 102.062C175.412 102.219 175.568 102.336 175.725 102.414L176.604 102.766L176.135 103.645C175.744 104.348 175.178 105.031 174.436 105.695C173.732 106.32 172.932 106.848 172.033 107.277C172.072 107.512 172.092 107.746 172.092 107.98C172.131 108.176 172.189 108.391 172.268 108.625C172.385 109.289 172.482 109.973 172.561 110.676C172.639 111.379 172.639 112.102 172.561 112.844L172.443 113.078ZM155.51 102.941C156.682 102.863 157.736 102.785 158.674 102.707C159.65 102.59 160.725 102.414 161.896 102.18C161.623 101.008 161.33 99.7969 161.018 98.5469C160.705 97.2578 160.373 95.9883 160.021 94.7383L159.67 95.3242C158.889 96.1445 158.127 97.0625 157.385 98.0781C156.682 99.0938 156.076 100.051 155.568 100.949C155.334 101.301 155.1 101.652 154.865 102.004C154.631 102.355 154.416 102.707 154.221 103.059C154.455 103.02 154.67 103 154.865 103C155.1 103 155.314 102.98 155.51 102.941ZM205.197 102.18C205.158 102.375 205.119 102.551 205.08 102.707C205.041 102.824 205.002 102.941 204.963 103.059C204.924 103.176 204.904 103.332 204.904 103.527C204.904 103.684 204.904 103.898 204.904 104.172C203.732 106.242 202.248 107.98 200.451 109.387C198.693 110.793 196.74 112.043 194.592 113.137C192.482 114.191 190.275 115.168 187.971 116.066C185.666 116.926 183.42 117.863 181.232 118.879C180.295 118.645 179.572 118.254 179.064 117.707C178.596 117.16 178.225 116.535 177.951 115.832C177.717 115.09 177.541 114.289 177.424 113.43C177.346 112.531 177.268 111.613 177.189 110.676C177.307 110.246 177.463 109.895 177.658 109.621C177.893 109.309 178.01 108.879 178.01 108.332C178.322 107.316 178.635 106.32 178.947 105.344C179.26 104.367 179.455 103.371 179.533 102.355C179.65 102.043 179.865 101.828 180.178 101.711C180.373 99.8359 180.373 97.9414 180.178 96.0273C180.021 94.0742 179.709 92.2578 179.24 90.5781C179.279 90.1875 179.318 89.9141 179.357 89.7578C179.436 89.5625 179.436 89.4258 179.357 89.3477C179.318 89.0352 179.416 88.8789 179.65 88.8789C179.924 88.8789 180.197 88.8789 180.471 88.8789C180.471 88.293 180.354 87.707 180.119 87.1211C179.924 86.5352 179.729 85.8711 179.533 85.1289C179.807 84.543 179.982 83.9766 180.061 83.4297C180.139 82.8438 180.314 82.3359 180.588 81.9062C182.697 82.5703 184.709 83.3711 186.623 84.3086C188.576 85.2461 190.49 85.9297 192.365 86.3594C193.771 87.375 195.217 88.3906 196.701 89.4062C198.186 90.3828 199.533 91.4766 200.744 92.6875C201.955 93.8594 202.971 95.207 203.791 96.7305C204.611 98.2539 205.08 100.07 205.197 102.18ZM191.311 105.402C192.131 105.09 192.932 104.758 193.713 104.406C194.533 104.055 195.275 103.664 195.939 103.234C196.643 102.766 197.268 102.238 197.814 101.652C198.361 101.066 198.811 100.363 199.162 99.543C198.928 99.0742 198.615 98.6641 198.225 98.3125C197.834 97.9219 197.443 97.5703 197.053 97.2578C196.662 96.9062 196.271 96.5547 195.881 96.2031C195.529 95.8516 195.236 95.4219 195.002 94.9141C194.494 94.8359 194.045 94.6992 193.654 94.5039C193.264 94.2695 192.873 94.0547 192.482 93.8594C192.131 93.625 191.74 93.4102 191.311 93.2148C190.92 93.0195 190.451 92.9023 189.904 92.8633C189.045 92.4336 188.264 92.1211 187.561 91.9258C186.896 91.7305 186.389 91.4766 186.037 91.1641C185.764 91.1641 185.549 91.2227 185.393 91.3398C185.783 92.8242 186.076 94.2305 186.271 95.5586C186.467 96.8477 186.564 98.1562 186.564 99.4844C186.604 100.773 186.545 102.102 186.389 103.469C186.232 104.836 186.018 106.32 185.744 107.922C186.135 107.883 186.486 107.805 186.799 107.688C187.15 107.531 187.482 107.375 187.795 107.219C188.146 107.062 188.498 106.926 188.85 106.809C189.24 106.652 189.689 106.555 190.197 106.516C190.314 106.281 190.471 106.086 190.666 105.93C190.9 105.773 191.115 105.598 191.311 105.402ZM222.482 102.648C222.209 102.883 221.975 103.176 221.779 103.527C221.584 103.84 221.389 104.172 221.193 104.523C220.998 104.953 220.783 105.363 220.549 105.754C220.314 106.145 220.021 106.496 219.67 106.809C219.475 107.395 219.279 107.863 219.084 108.215C218.889 108.527 218.576 108.898 218.146 109.328C217.756 110.891 216.838 112.59 215.393 114.426C215.354 114.777 215.236 115.129 215.041 115.48C214.885 115.793 214.709 116.105 214.514 116.418C214.436 116.535 214.357 116.672 214.279 116.828C214.201 116.945 214.143 117.043 214.104 117.121L213.986 117.707C213.791 118.02 213.576 118.293 213.342 118.527C213.107 118.762 212.893 118.977 212.697 119.172C212.619 119.289 212.482 119.445 212.287 119.641L211.408 119.992C208.557 119.602 206.818 118.078 206.193 115.422L206.252 114.836C206.33 114.641 206.389 114.445 206.428 114.25C206.506 114.016 206.584 113.781 206.662 113.547C206.818 113 206.994 112.453 207.189 111.906C207.424 111.359 207.756 110.871 208.186 110.441C208.264 110.168 208.439 109.738 208.713 109.152C208.986 108.527 209.455 107.609 210.119 106.398C210.666 105.461 211.096 104.719 211.408 104.172C211.721 103.625 211.975 103.195 212.17 102.883C211.779 102.258 211.311 101.691 210.764 101.184C210.256 100.207 209.807 99.2695 209.416 98.3711C209.064 97.4727 208.791 96.6719 208.596 95.9688C208.557 95.4609 208.498 95.0312 208.42 94.6797C208.342 94.3281 208.264 93.957 208.186 93.5664C208.068 93.1367 207.971 92.707 207.893 92.2773C207.814 91.8477 207.775 91.3984 207.775 90.9297C207.58 90.6562 207.463 90.3828 207.424 90.1094L207.541 89.5234C207.658 89.25 207.678 88.8984 207.6 88.4688C207.521 88 207.424 87.5312 207.307 87.0625C207.229 86.6719 207.131 86.2422 207.014 85.7734C206.936 85.3047 206.916 84.8359 206.955 84.3672C206.994 83.8984 207.111 83.4688 207.307 83.0781C207.541 82.6484 207.912 82.2773 208.42 81.9648L209.416 81.9062C209.768 82.1016 210.1 82.2969 210.412 82.4922C210.764 82.6484 211.096 82.8242 211.408 83.0195C211.838 83.2148 212.248 83.4102 212.639 83.6055C213.029 83.8008 213.439 84.0547 213.869 84.3672L214.279 85.1875L215.041 85.832V86.4766C215.08 86.6328 215.1 86.8477 215.1 87.1211C215.1 87.6289 215.178 87.9414 215.334 88.0586L215.568 88.7617C215.568 89.3086 215.627 89.8359 215.744 90.3438C215.861 90.8125 215.979 91.2617 216.096 91.6914C216.213 92.1211 216.33 92.5703 216.447 93.0391C216.564 93.5078 216.584 94.0156 216.506 94.5625C216.74 94.4453 216.936 94.3086 217.092 94.1523C217.17 94.0742 217.248 94.0156 217.326 93.9766C217.404 93.9375 217.482 93.8789 217.561 93.8008L221.018 89.1133L220.9 88.5273L222.131 87.3555C222.443 87.043 222.736 86.75 223.01 86.4766C223.322 86.2031 223.576 85.9102 223.771 85.5977L224.416 85.1289C225.666 83.1758 227.443 81.9648 229.748 81.4961L230.568 81.3789L230.803 82.1406C230.959 82.5703 231.271 82.9609 231.74 83.3125C232.248 83.6641 232.775 83.9961 233.322 84.3086L233.85 84.6602C234.045 85.0508 234.143 85.3438 234.143 85.5391C234.143 85.7344 234.123 85.9102 234.084 86.0664L234.318 86.6523C234.006 87.5898 233.615 88.2734 233.146 88.7031C232.717 89.1328 232.287 89.5234 231.857 89.875C231.506 90.1875 231.174 90.4805 230.861 90.7539C230.588 90.9883 230.373 91.3008 230.217 91.6914L229.807 92.1602C228.986 92.6289 228.459 93.2539 228.225 94.0352L228.049 94.7383H227.346C227.307 94.7383 227.209 94.8164 227.053 94.9727C226.936 95.0898 226.74 95.4219 226.467 95.9688C226.193 96.3594 225.998 96.6133 225.881 96.7305C225.764 96.8477 225.666 96.9453 225.588 97.0234C225.549 97.1797 225.49 97.3359 225.412 97.4922C225.373 97.6094 225.314 97.7656 225.236 97.9609C224.729 98.4688 224.416 98.8594 224.299 99.1328C224.182 99.3672 224.045 99.6406 223.889 99.9531C223.732 100.266 223.576 100.578 223.42 100.891C223.303 101.164 223.088 101.457 222.775 101.77L222.482 102.648Z" fill="#9371DC"/>
<g filter="url(#filter0_i)">
<rect x="2" y="2" width="241" height="132" rx="12" stroke="#DA8594" stroke-width="4"/>
</g>
<defs>
<filter id="filter0_i" x="0" y="0" width="245" height="140" filterUnits="userSpaceOnUse" color-interpolation-filters="sRGB">
<feFlood flood-opacity="0" result="BackgroundImageFix"/>
<feBlend mode="normal" in="SourceGraphic" in2="BackgroundImageFix" result="shape"/>
<feColorMatrix in="SourceAlpha" type="matrix" values="0 0 0 0 0 0 0 0 0 0 0 0 0 0 0 0 0 0 127 0" result="hardAlpha"/>
<feOffset dy="4"/>
<feGaussianBlur stdDeviation="5"/>
<feComposite in2="hardAlpha" operator="arithmetic" k2="-1" k3="1"/>
<feColorMatrix type="matrix" values="0 0 0 0 0 0 0 0 0 0 0 0 0 0 0 0 0 0 0.25 0"/>
<feBlend mode="normal" in2="shape" result="effect1_innerShadow"/>
</filter>
</defs>
</svg>
